HIERARCHY
ROOT Hips
{
	OFFSET 0.000000 8.830580 0.000000
	CHANNELS 6 Xposition Yposition Zposition Zrotation Yrotation Xrotation 
	JOINT Spine
	{
		OFFSET 0.000000 0.010000 0.000000
		CHANNELS 3 Zrotation Yrotation Xrotation
		JOINT Spine1
		{
			OFFSET 0.000000 2.459130 0.000000
			CHANNELS 3 Zrotation Yrotation Xrotation
			JOINT Neck
			{
				OFFSET 0.000000 2.484630 0.000000
				CHANNELS 3 Zrotation Yrotation Xrotation
				JOINT Head_virtual
				{
					OFFSET 0.000000 0.000000 0.000000
					CHANNELS 3 Zrotation Yrotation Xrotation
					JOINT Head
					{
						OFFSET 0.000000 0.927525 0.000000
						CHANNELS 3 Zrotation Yrotation Xrotation
						End Site
						{
							OFFSET 0.000000 0.000000 0.000000
						}
					}
				}
				JOINT LeftUpArm_virtual
				{
					OFFSET 0.000000 0.000000 0.000000
					CHANNELS 3 Zrotation Yrotation Xrotation
					JOINT LeftUpArm
					{
						OFFSET 1.248820 0.000000 0.000000
						CHANNELS 3 Zrotation Yrotation Xrotation
						JOINT LeftForeArm
						{
							OFFSET 2.597580 0.000000 0.000000
							CHANNELS 3 Zrotation Yrotation Xrotation
							JOINT LeftHand
							{
								OFFSET 2.455420 0.000000 0.000000
								CHANNELS 3 Zrotation Yrotation Xrotation
								End Site
								{
									OFFSET 0.000000 0.000000 0.000000
								}
							}
						}
					}
				}
				JOINT RightUpArm_virtual
				{
					OFFSET -0.000000 -0.000000 -0.000000
					CHANNELS 3 Zrotation Yrotation Xrotation
					JOINT RightUpArm
					{
						OFFSET -1.248820 -0.000000 -0.000000
						CHANNELS 3 Zrotation Yrotation Xrotation
						JOINT RightForeArm
						{
							OFFSET -2.597580 -0.000000 -0.000000
							CHANNELS 3 Zrotation Yrotation Xrotation
							JOINT RightHand
							{
								OFFSET -2.455420 -0.000000 -0.000000
								CHANNELS 3 Zrotation Yrotation Xrotation
								End Site
								{
									OFFSET 0.000000 0.000000 0.000000
								}
							}
						}
					}
				}
			}
		}
	}
	JOINT LeftUpLeg
	{
		OFFSET 1.271939 0.000000 0.000000
		CHANNELS 3 Zrotation Yrotation Xrotation
		JOINT LeftLowLeg
		{
			OFFSET 0.000000 -4.342910 0.000000
			CHANNELS 3 Zrotation Yrotation Xrotation
			JOINT LeftFoot
			{
				OFFSET 0.000000 -4.487670 0.000000
				CHANNELS 3 Zrotation Yrotation Xrotation
				JOINT LeftToeBase
				{
					OFFSET 0.000000 0.000000 1.515070
					CHANNELS 3 Zrotation Yrotation Xrotation
					End Site
					{
						OFFSET 0.000000 0.000000 0.000000
					}
				}
			}
		}
	}
	JOINT RightUpLeg
	{
		OFFSET -1.271939 0.000000 0.000000
		CHANNELS 3 Zrotation Yrotation Xrotation
		JOINT RightLowLeg
		{
			OFFSET 0.000000 -4.342910 0.000000
			CHANNELS 3 Zrotation Yrotation Xrotation
			JOINT RightFoot
			{
				OFFSET 0.000000 -4.487670 0.000000
				CHANNELS 3 Zrotation Yrotation Xrotation
				JOINT RightToeBase
				{
					OFFSET 0.000000 0.000000 1.515070
					CHANNELS 3 Zrotation Yrotation Xrotation
					End Site
					{
						OFFSET 0.000000 0.000000 0.000000
					}
				}
			}
		}
	}
}
MOTION
Frames: 14
Frame Time: 0.041667
-16.086654 9.282359 38.703264 -172.586726 -2.276796 175.779211 7.485640 -1.621534 -23.194830 -1.059562 0.818344 38.760994 0.000000 0.000000 0.000000 -1.625971 -1.885628 -20.135810 7.101807 4.470854 -73.692187 -28.864099 -2.540880 -10.631900 -36.835400 4.987430 35.688900 0.000000 -25.460400 0.000000 7.315050 7.632690 2.673500 29.007200 1.126070 -1.551090 39.566200 6.213170 20.984800 0.000000 21.607201 0.000000 -1.845240 -1.700150 -7.116480 10.056494 16.892026 11.738820 0.000000 0.000000 1.555810 -6.610035 6.759597 7.270932 0.000000 0.000000 -10.526810 9.081949 9.309819 7.286944 0.000000 0.000000 6.045050 12.881451 -23.144588 10.663684 0.000000 0.000000 -13.080600 
-16.085585 9.282277 38.704148 -172.589329 -2.306471 175.769945 7.484243 -1.589838 -23.217862 -1.136473 0.813424 38.825146 0.000000 0.000000 0.000000 -1.505247 -1.910425 -20.102437 6.940186 4.424589 -73.463519 -28.853001 -2.576820 -10.602900 -36.844101 4.847400 35.486198 0.000000 -25.576200 0.000000 7.265010 7.824160 2.838590 29.009500 1.107220 -1.609030 39.564400 6.140830 20.844500 0.000000 21.740900 0.000000 -1.829290 -1.778040 -7.103930 10.059475 16.869104 11.751193 0.000000 0.000000 1.521250 -6.619881 6.747225 7.291552 0.000000 0.000000 -10.512990 9.090838 9.319391 7.280820 0.000000 0.000000 6.064440 12.896477 -23.181500 10.645474 0.000000 0.000000 -13.087060 
-16.084465 9.282490 38.705653 -172.594165 -2.331937 175.748430 7.507977 -1.503512 -23.220363 -1.325167 0.779840 38.891381 0.000000 0.000000 0.000000 -1.490973 -1.866606 -19.998848 6.851121 4.470053 -73.355164 -28.821501 -2.577940 -10.599800 -36.771599 4.614480 35.593700 0.000000 -25.702101 0.000000 7.359750 7.777730 3.018170 29.083500 1.093290 -1.601020 39.544201 6.219800 20.720301 0.000000 21.814800 0.000000 -1.820270 -1.961930 -7.272600 10.065717 16.863858 11.763738 0.000000 0.000000 1.506270 -6.624569 6.726425 7.312506 0.000000 0.000000 -10.507900 9.089271 9.276738 7.262304 0.000000 0.000000 6.122530 12.890320 -23.168261 10.638149 0.000000 0.000000 -13.081270 
-16.083364 9.282795 38.707642 -172.594465 -2.348863 175.710033 7.562013 -1.349310 -23.207211 -1.609440 0.731199 38.980777 0.000000 0.000000 0.000000 -1.364750 -1.797464 -19.926395 6.700085 4.544934 -73.249265 -28.693899 -2.597590 -10.615700 -36.754501 4.337590 35.600300 0.000000 -25.851601 0.000000 7.390210 7.795530 2.960910 29.205000 1.110300 -1.657960 39.506100 6.260330 20.711100 0.000000 22.003700 0.000000 -2.066490 -1.815980 -7.319080 10.077540 16.854594 11.784613 0.000000 0.000000 1.505410 -6.606716 6.724698 7.333114 0.000000 0.000000 -10.516790 9.110413 9.320458 7.257236 0.000000 0.000000 6.185610 12.909552 -23.239858 10.611253 0.000000 0.000000 -13.070860 
-16.081781 9.283212 38.709852 -172.590976 -2.352856 175.670427 7.624939 -1.180222 -23.205912 -1.924469 0.674862 39.063925 0.000000 0.000000 0.000000 -1.238785 -1.703179 -19.800829 6.583280 4.642935 -73.139582 -28.564600 -2.646640 -10.651200 -36.672501 4.060060 35.703201 0.000000 -26.060900 0.000000 7.435870 7.764030 2.971390 29.328800 1.140580 -1.571030 39.472900 6.459380 20.575899 0.000000 22.151100 0.000000 -2.067960 -1.885070 -7.299970 10.090516 16.822323 11.809159 0.000000 0.000000 1.500670 -6.626176 6.752948 7.349184 0.000000 0.000000 -10.517930 9.129263 9.340269 7.224433 0.000000 0.000000 6.300490 12.945955 -23.259820 10.579222 0.000000 0.000000 -13.056800 
-16.079558 9.283833 38.713017 -172.589679 -2.344054 175.637296 7.626366 -1.129997 -23.232183 -2.033274 0.671508 39.186508 0.000000 0.000000 0.000000 -1.187492 -1.660290 -19.691735 6.523780 4.671518 -72.967907 -28.506500 -2.778670 -10.664700 -36.634499 3.755750 35.715698 0.000000 -26.248100 0.000000 7.576490 7.623170 2.846240 29.335600 1.230330 -1.615790 39.457901 6.553060 20.489901 0.000000 22.306601 0.000000 -2.178920 -1.722130 -7.439200 10.107548 16.820611 11.811563 0.000000 0.000000 1.524310 -6.623406 6.765355 7.373666 0.000000 0.000000 -10.514980 9.148739 9.346807 7.172578 0.000000 0.000000 6.421980 12.929334 -23.289396 10.575965 0.000000 0.000000 -13.047960 
-16.077190 9.284370 38.715442 -172.588842 -2.328093 175.612840 7.623500 -1.089571 -23.226545 -2.125264 0.666161 39.258166 0.000000 0.000000 0.000000 -1.238552 -1.618771 -19.583772 6.568124 4.690599 -72.815513 -28.503201 -2.830710 -10.639900 -36.548401 3.338120 35.699299 0.000000 -26.554800 0.000000 7.617770 7.692080 2.566880 29.402100 1.225830 -1.598530 39.350399 6.802860 20.402700 0.000000 22.489300 0.000000 -2.273640 -1.514730 -7.141810 10.121810 16.802966 11.824472 0.000000 0.000000 1.520390 -6.650402 6.793960 7.393454 0.000000 0.000000 -10.494760 9.158584 9.300300 7.119664 0.000000 0.000000 6.531250 12.896537 -23.269758 10.590095 0.000000 0.000000 -13.068840 
-16.074511 9.285105 38.718626 -172.591093 -2.287060 175.588495 7.618590 -1.060429 -23.238114 -2.205436 0.661737 39.343831 0.000000 0.000000 0.000000 -1.180518 -1.570767 -19.418096 6.585246 4.698964 -72.544995 -28.476299 -2.901950 -10.699900 -36.482498 2.946200 35.771400 0.000000 -26.834700 0.000000 7.845650 7.573990 2.818810 29.413000 1.328470 -1.589970 39.291100 6.977960 20.271799 0.000000 22.696899 0.000000 -2.376480 -1.373150 -6.928520 10.136690 16.799974 11.830352 0.000000 0.000000 1.538510 -6.702992 6.818177 7.408031 0.000000 0.000000 -10.489590 9.169557 9.280688 7.063340 0.000000 0.000000 6.642470 12.849567 -23.256436 10.611616 0.000000 0.000000 -13.068080 
-16.070634 9.285763 38.722768 -172.598483 -2.217917 175.573638 7.593391 -1.024397 -23.257436 -2.261592 0.687226 39.402285 0.000000 0.000000 0.000000 -1.037490 -1.547218 -19.101292 6.575640 4.690799 -72.288683 -28.441900 -3.035580 -10.677700 -36.400002 2.539120 35.771500 0.000000 -27.164801 0.000000 8.101860 7.534070 3.039520 29.431000 1.374740 -1.548840 39.200600 7.282730 20.243500 0.000000 22.923500 0.000000 -2.438460 -1.433070 -6.931360 10.144409 16.778264 11.830340 0.000000 0.000000 1.550320 -6.743031 6.883432 7.430598 0.000000 0.000000 -10.464430 9.182489 9.280134 6.992336 0.000000 0.000000 6.753280 12.765274 -23.232380 10.632574 0.000000 0.000000 -13.017360 
-16.067070 9.286203 38.727534 -172.614485 -2.157803 175.563373 7.617370 -0.916593 -23.257551 -2.488470 0.653101 39.468763 0.000000 0.000000 0.000000 -0.978474 -1.414563 -18.796905 6.647169 4.761054 -71.859942 -28.326700 -3.104520 -10.721900 -36.329498 2.101010 35.796101 0.000000 -27.498600 0.000000 8.388570 7.475880 2.989790 29.510099 1.482450 -1.527740 39.125198 7.553880 20.152300 0.000000 23.185499 0.000000 -2.528120 -1.341280 -6.946420 10.145212 16.785077 11.828050 0.000000 0.000000 1.550550 -6.807117 6.912938 7.454165 0.000000 0.000000 -10.437540 9.177470 9.252876 6.912939 0.000000 0.000000 6.866460 12.720189 -23.186930 10.642650 0.000000 0.000000 -13.040940 
-16.062932 9.286784 38.730496 -172.605801 -1.982033 175.570530 7.648500 -0.786395 -23.319627 -2.595692 0.687554 39.549805 0.000000 0.000000 0.000000 -0.879754 -1.354512 -18.335192 6.716260 4.756185 -71.424195 -28.204700 -3.238150 -10.699700 -36.304401 1.679900 35.725899 0.000000 -27.865299 0.000000 8.559800 7.448000 3.061430 29.495701 1.546220 -1.465550 39.092098 7.915110 20.099800 0.000000 23.382601 0.000000 -2.659660 -1.249800 -6.990290 10.221786 16.999373 11.904337 0.000000 0.000000 1.470320 -6.867465 6.824716 7.521429 0.000000 0.000000 -10.440100 9.212077 9.366685 6.835545 0.000000 0.000000 6.961890 12.658030 -23.169301 10.683835 0.000000 0.000000 -13.042300 
-16.057839 9.287120 38.738725 -172.606698 -1.706443 175.563524 7.663860 -0.678108 -23.309230 -2.599088 0.757704 39.671655 0.000000 0.000000 0.000000 -0.919281 -1.287832 -17.919005 6.825800 4.725530 -70.835430 -28.127800 -3.383980 -10.743600 -36.286800 1.222500 35.681198 0.000000 -28.219700 0.000000 8.790950 7.262570 2.996780 29.456100 1.666280 -1.412360 38.976398 8.323390 19.927299 0.000000 23.652399 0.000000 -2.707810 -1.196320 -6.912850 10.284141 17.222974 11.985783 0.000000 0.000000 1.400190 -6.969164 6.825733 7.559208 0.000000 0.000000 -10.410810 9.250236 9.620582 6.694006 0.000000 0.000000 7.165640 12.681377 -23.150533 10.659113 0.000000 0.000000 -13.054460 
-16.053516 9.287610 38.748512 -172.612396 -1.980311 175.515288 7.615418 -0.888924 -23.288468 -2.740086 0.588496 39.794117 0.000000 0.000000 0.000000 -1.010372 -1.172469 -17.417155 6.986422 4.746642 -70.278655 -28.066700 -3.493090 -10.834700 -36.136200 0.782292 35.736500 0.000000 -28.741199 0.000000 9.014780 7.255620 2.739480 29.514500 1.857540 -1.400480 38.772900 8.684980 19.860300 0.000000 23.993200 0.000000 -2.768720 -1.193970 -6.892110 10.208350 16.737333 11.807673 0.000000 0.000000 1.530740 -6.966738 7.008523 7.542149 0.000000 0.000000 -10.436340 9.219890 9.174121 6.662199 0.000000 0.000000 7.180490 12.566817 -23.042481 10.733934 0.000000 0.000000 -13.068120 
-16.048508 9.288865 38.762282 -172.643149 -2.142493 175.577346 7.566943 -1.039035 -23.367771 -2.833990 0.500061 40.034434 0.000000 0.000000 0.000000 -1.083350 -1.078273 -16.941968 7.113659 4.745576 -69.721077 -27.992399 -3.673810 -10.961600 -36.004501 0.331684 35.740700 0.000000 -29.279499 0.000000 9.285430 7.133750 2.892680 29.507500 2.000820 -1.471810 38.632000 9.095150 19.639700 0.000000 24.379299 0.000000 -2.770950 -1.170580 -6.839540 10.095189 16.391689 11.522245 0.000000 0.000000 1.685220 -6.964489 7.172351 7.553406 0.000000 0.000000 -10.452810 9.169057 8.964920 6.453941 0.000000 0.000000 7.297960 12.543333 -22.990443 10.753849 0.000000 0.000000 -13.095120 
